<svg xmlns="http://www.w3.org/2000/svg" viewBox="0 0 304 312" width="304" height="312">
	<style>
		tspan { white-space:pre }
		.shp0 { fill: #000000 } 
	</style>
	<g id="Layer 1">
		<g id="&lt;Group&gt;">
			<path id="&lt;Compound Path&gt;" fill-rule="evenodd" class="shp0" d="M-67.95 185.47C-67.53 185.53 -67.34 185.5 -67.33 185.39C-67.82 185.41 -68.06 185.45 -67.95 185.47ZM-67.33 185.39C-65.34 185.33 -59.24 185.79 -55.94 190.71C-54.76 192.5 -48.77 232.61 -44.4 275.47L-241.02 276.15C-238.72 243.94 -234.3 214.37 -233.3 206.4C-231.3 190.43 -224.3 187.56 -218.12 187.56C-214.48 187.56 -202.25 177.2 -192.17 172.62C-196.09 172.32 -199.66 171.17 -202.63 168.84C-214 159.92 -214.59 153.19 -214.59 146.92C-206.17 154.64 -198.59 151.46 -193.01 107.5C-192.32 102.07 -192.32 90.34 -190.21 80.64C-187.23 58.87 -170.59 52.73 -157.62 50.02C-151.44 48.72 -140.86 48.53 -131.76 52.24C-120.1 55.89 -103.82 66.13 -101.96 90.06C-98.83 130.35 -92.8 158.88 -75.61 142.46C-76.04 159.08 -83.48 167.61 -92.09 172.51C-86.86 174.3 -67.21 184.22 -67.33 185.39ZM-161.28 250.97C-159.51 246.09 -177.74 185.07 -176.58 175.82C-175.81 169.65 -173.62 161.56 -170.02 151.53C-174.37 157.9 -175.37 160.65 -184.67 168.5C-185.68 171.64 -194.89 191.83 -198.36 196.45C-190.86 192.53 -186.29 191.45 -184.67 193.22L-191.65 202.76L-182.68 202.43C-169.23 226.22 -162.09 242.4 -161.28 250.97ZM-109.69 169.07C-115.85 165.99 -122.54 159.05 -129.74 148.25C-127.86 153.43 -126.66 158.08 -126.14 162.19C-125.38 168.36 -133.13 180.15 -141.61 196.44C-146.05 204.97 -152.57 223.11 -161.17 250.86C-157.02 239.74 -151.11 227.3 -143.44 213.57C-138.67 205.03 -132.31 201.5 -124.37 202.98L-131.03 193C-127.33 190.34 -122.16 190.93 -115.5 194.78C-118.16 176.16 -115.08 171.39 -109.69 169.07Z" />
		</g>
		<g id="&lt;Group&gt;">
			<path id="&lt;Compound Path&gt;" fill-rule="evenodd" class="shp0" d="M323.11 275.03C325.04 242.81 328.06 210.97 329.67 205.3C332.5 195.43 365.78 178.68 376.02 173.36L378.26 171.72L380.78 203.88L386.14 199.5L393.93 262.36L402.46 200.23L398.08 191.46L405.47 184.39L388.93 163.78L388.87 163.37C389.54 162.82 390.14 162.33 390.62 161.96C389.58 153.21 386.14 145.13 385.98 143.48C385.97 143.33 381.88 140.65 380.49 136.51C379.92 134.82 379.06 132.38 377.92 129.18C377.21 129.07 376.49 128.4 375.76 127.18C374.66 125.35 368.68 110.17 371.37 107.71C372.14 107 373.35 106.51 374.11 106.26C373.15 106.08 371.42 104.04 370.3 92.51C369.84 87.76 369.84 71.6 374.94 64.25C378.14 59.62 383.05 54.74 386.35 54.74C388.55 54.74 391.12 54.5 394.05 54.01C395.89 52.17 398.09 48.87 404.32 48.87C410.55 48.87 423.39 51.81 432.91 55.47C442.45 59.14 447.95 63.18 450.15 69.78C452.36 76.37 455.29 97.64 453.45 100.57C451.24 104.11 451.44 104.23 451.25 104.98C453.21 107.18 453.7 109.74 452.72 112.67C451.25 117.08 447.11 130.09 443.36 128.94C442.38 132.12 439.92 141.11 440.57 151.67C440.6 151.68 441.49 156.26 441.53 156.29L412.94 183.74L421.22 191.21L414.32 200.23L414.4 263.33C417.63 245.93 427.8 216.06 432.35 198.52C432.74 197.32 439.81 203.61 440.23 202.42C440.7 200.85 445.19 188.95 453.69 166.74C486.41 175.95 505.79 184.28 511.83 191.72C518.43 199.84 522.77 236.47 525.8 275.03L323.11 275.03ZM440.77 151.82C440.75 151.8 440.71 151.77 440.7 151.76L440.79 151.66L440.77 151.82Z" />
			<path id="&lt;Compound Path&gt;" class="shp0" d="M441.04 155.31C438.6 153.69 423.12 154.77 394.58 158.56L391.05 158.81L371.92 175.62L372.41 177.81L374.85 178.54L376.39 174.64L389.88 162.79L402.87 174.64L423.84 173.34L440.88 157.59L453.23 167.66L453.91 171.72L459.4 170.26C449.6 161.92 443.48 156.94 441.04 155.31Z" />
		</g>
		<g id="&lt;Group&gt;">
			<path id="&lt;Path&gt;" class="shp0" d="M-99.84 394.56C-102.17 406.21 -103.81 419.07 -108.32 427.84C-114.76 440.36 -128.86 448.07 -140.3 448.07C-152.46 448.07 -165.94 439.77 -172.28 425.89C-176.08 417.55 -178.9 396.89 -179.96 386.13C-182.99 355.3 -170.97 344.31 -140.3 343.66C-106.32 342.93 -93.96 365.19 -99.84 394.56Z" />
			<path id="&lt;Path&gt;" class="shp0" d="M-177.5 382.38C-182.28 379.77 -186.64 380.2 -185.77 385.86C-184.9 391.51 -183.59 406.74 -180.54 409.35C-177.5 411.96 -174.45 412.83 -172.71 409.79C-171.55 407.76 -173.15 398.62 -177.5 382.38Z" />
			<path id="&lt;Path&gt;" class="shp0" d="M-102.05 382.38C-97.26 379.77 -92.91 380.2 -93.78 385.86C-94.65 391.51 -95.95 406.74 -99 409.35C-102.05 411.96 -105.09 412.83 -106.83 409.79C-107.99 407.76 -106.4 398.62 -102.05 382.38Z" />
			<g id="&lt;Group&gt;">
				<path id="&lt;Path&gt;" class="shp0" d="M-120.55 341.14C-122.19 334.59 -119.72 331.68 -132.55 328.6C-146.18 325.32 -156.54 325.32 -169.63 335.69C-179.92 343.84 -184.35 351.5 -183.8 366.22C-183.44 376.04 -182.71 383.12 -181.62 387.48L-172.9 392.39C-172.17 374.22 -170.72 363.31 -168.53 359.68C-165.26 354.22 -144.54 355.86 -135.27 353.68C-129.09 352.23 -124.19 348.04 -120.55 341.14Z" />
				<path id="&lt;Path&gt;" class="shp0" d="M-125.46 341.68C-122.19 349.32 -111.28 357.5 -107.47 364.04C-104.92 368.4 -104.19 378.58 -105.28 394.57L-98.2 388.58C-93.47 372.22 -93.47 358.95 -98.2 348.77C-105.28 333.5 -116.73 328.05 -123.82 331.87C-128.55 334.41 -129.09 337.68 -125.46 341.68Z" />
			</g>
			<path id="&lt;Compound Path&gt;" fill-rule="evenodd" class="shp0" d="M-28.96 565.98L-252.05 565.98C-249.8 516.69 -237.5 477.89 -235.63 475.22C-234.39 473.43 -232.65 472.54 -230.4 472.54L-178.84 450.6L-167.32 443.82C-167.07 436.7 -167.29 429.26 -167.93 423.27C-129.26 415.85 -110.85 416.29 -112.67 424.58C-113.9 430.17 -113.95 437.12 -113.57 443.49L-101.49 450.6L-49.92 471.18C-47.68 471.18 -45.94 472.07 -44.69 473.85C-42.82 476.53 -31.2 516.69 -28.96 565.98ZM-104.01 451.07L-112.65 446.18L-135.06 469.86L-133.25 471.03C-135.84 472.92 -138.01 474.03 -139.48 474.15C-140.32 474.22 -141.82 473.62 -143.69 472.55L-142.56 471.9L-167.28 446.18L-175.64 451.41L-172.23 488.93L-167.96 486.48C-165.93 494.69 -163.42 502.99 -160.86 512.36C-154.12 537 -144.54 559.87 -142.7 562.16L-134.51 562.16C-132.67 559.87 -123.03 535.63 -116.29 510.99C-113.81 501.96 -111.33 493.9 -109.61 486.4L-105.71 488.93L-104.01 451.07Z" />
			<path id="&lt;Path&gt;" class="shp0" d="M-136.45 467.33L-141.5 467.33L-148.24 474.07C-145.49 474.96 -143.85 478.5 -143.31 484.69C-140.7 484.87 -139.82 484.89 -138.97 484.86C-138.13 484.89 -137.25 484.87 -134.63 484.69C-134.09 478.5 -132.21 474.89 -128.99 473.84L-136.45 467.33Z" />
			<path id="&lt;Path&gt;" class="shp0" d="M-134.98 483.48L-138.11 482.08L-138.11 481.45L-138.97 481.77L-139.83 481.45L-139.83 482.08L-142.97 483.48C-146.9 487.06 -146.82 500.69 -146.82 504.29L-146.82 566.03L-131.13 566.03L-131.13 504.29C-131.13 500.69 -131.05 487.06 -134.98 483.48Z" />
			<path id="&lt;Path&gt;" class="shp0" d="M-136.45 467.33L-109.46 486.38L-135.84 469.83L-136.45 467.33Z" />
			<path id="&lt;Path&gt;" class="shp0" d="M-141.5 467.33L-166.94 485.69L-141.53 469.83L-141.5 467.33Z" />
		</g>
		<g id="&lt;Group&gt;">
			<path id="&lt;Path&gt;" class="shp0" d="M158.98 215.73C158.98 212.39 159.03 200.13 155.7 196.02C156.67 190.89 157.68 187.17 158.72 184.85L153.91 181.37L149 181.37L143.79 184.68C144.84 187.01 145.9 190.79 146.98 196.03C143.65 200.14 143.7 212.39 143.7 215.73L143.72 266.58L158.99 266.58L158.98 215.73Z" />
			<path id="&lt;Compound Path&gt;" class="shp0" d="M235.32 192.81C234.45 189.35 231.79 186.64 227.35 184.69L192.19 168.02C190.64 156.69 185.17 144.62 177.4 135.72C179.08 132.31 180.48 128.2 181.69 123.8C182.38 123.48 183.09 123.03 183.81 122.49C186.7 120.29 190.09 106.5 191.18 101.45C191.89 98.14 189.86 96.8 187.12 96.84L187.12 96.84L188.49 95.86C189.61 94.97 189.94 88.72 189.5 77.13C188.16 51.72 155.06 45.7 148.37 45.7C141.68 45.7 132.99 47.71 130.98 51.72L131.42 52.11C128.63 51.31 124.13 51.43 120.28 54.73C116.69 57.81 104.37 72.63 111.48 96.82C108.93 96.93 107.14 98.31 107.91 101.45C109.14 106.47 112.96 120.29 115.91 122.39C116.72 122.97 117.52 123.42 118.28 123.72C119.48 128.31 120.76 132.37 121.95 134.98C122.8 136.85 123.82 138.59 124.94 140.21C122.65 146.93 119.75 155.34 120.17 160.75L129.97 151.51C130.05 151.36 130.1 151.32 130.1 151.39L129.97 151.51C129.77 151.89 129.26 153.18 127.99 157.4C126.15 163.52 137.85 177.23 141.09 182.48C145.22 186.83 149.09 189.77 150.87 189.75C153.53 189.72 157.43 186.48 161.28 182.44C161.27 182.44 161.27 182.44 161.26 182.44C164.02 179.52 177.25 164.18 175.22 157.4C173.97 153.25 173.46 151.93 173.25 151.54L173.1 151.39C173.11 151.32 173.16 151.37 173.25 151.54L185.45 163.41L191.15 201.93C187.85 196.5 183.8 192 178.99 188.44C179.2 194.35 177.99 196.75 175.88 203.56C168.2 228.35 157.01 261.64 155.26 263.82L147.45 263.82C145.7 261.64 138.2 235.72 128.13 204.86C125.68 197.37 125.09 195.58 124.62 189.72C118.82 193.45 114.08 197.68 110.42 202.42L118.22 161.97L112.3 165.09L70.96 185.99C67.91 186.64 65.3 189.02 63.14 193.14C61.69 195.89 54.36 229.2 50.34 275.03L247.32 275.03C242.46 229.52 236.07 195.83 235.32 192.81Z" />
		</g>
		<path id="&lt;Compound Path&gt;" fill-rule="evenodd" class="shp0" d="M232.36 566.03L46.88 566.03C52.33 530.67 59.96 492.95 61.33 486.67C66.67 473.67 73.81 472.5 80.5 474C82.95 474.54 93.18 468.72 104 464.5C103.57 462.2 102.57 456.65 99.97 452.96C75.12 417.69 77.78 393 80.61 375.91C83.75 356.84 105.62 347.5 117.13 361.08C118.08 358.53 119.32 355.98 120.9 353.15C130.45 336.12 160.84 335.36 171.55 335.79C188.99 336.49 197.83 341.8 198.06 351.69C199.12 352.87 200.68 354.81 202.78 361.96C203.47 364.33 204.52 369.18 205.95 376.51C204.66 380.76 203.96 383.9 203.86 385.94C203.72 388.98 208.31 397.24 210.2 400.89C212.6 404.01 207.79 407.27 205.5 407.16C204.6 407.11 202.65 409.86 205.27 413.92C206.59 415.95 204.22 417.95 202.97 418.35C202.5 418.52 204.01 418.85 203.69 420.99C203.28 423.6 200.29 422.96 200.47 426.06C200.63 428.61 201.07 433.6 198.54 435.18C196.6 436.4 192.26 437.14 184.97 436.56C181.84 436.31 175.01 438.86 170.42 447.11C169.86 448.11 168.89 452.41 168.02 456.24L166.5 462.33L166.52 462.43C166.52 462.45 166.51 462.48 166.5 462.5C166.51 462.5 166.53 462.52 166.54 462.52L174.25 495.5L165.75 514L183.67 494.33L174.36 466.2C184.19 470.79 199.89 477.96 202 478C204.91 478.05 210 478.67 214 483C219.52 489.53 218.9 491.45 221 498.67C225.32 513.54 232 556.33 232.36 566.03ZM122.5 454.54C123.17 454.27 123.77 454.04 124.36 453.8C128.42 446.44 133.14 441.91 132.47 427.96C132.11 420.5 120.23 415.87 116.71 396.75C116.6 396.96 116.51 397.12 116.4 397.35C110.77 408.12 118.58 422.67 122.02 448.77C122.3 450.86 122.44 452.76 122.5 454.54ZM146.5 518.5L171.75 495L133.25 443L123.68 460.65L146.5 518.5Z" />
		<g id="&lt;Group&gt;">
			<g id="&lt;Group&gt;">
				<path id="&lt;Path&gt;" class="shp0" d="M194.5 686.04C192.22 697.43 192.37 710.87 187.96 719.44C181.67 731.68 167.88 739.22 156.7 739.22C144.8 739.22 131.62 731.11 125.43 717.53C121.72 709.38 117.53 688.56 116.5 678.04C113.54 647.9 127.18 630.84 157.17 630.2C190.39 629.49 200.24 657.32 194.5 686.04Z" />
				<path id="&lt;Path&gt;" class="shp0" d="M118.33 675.99C113.65 673.44 109.39 673.86 110.24 679.39C111.09 684.92 112.37 699.81 115.35 702.36C118.33 704.92 121.3 705.77 123 702.79C124.14 700.8 122.58 691.87 118.33 675.99Z" />
				<path id="&lt;Path&gt;" class="shp0" d="M192.76 673.66C197.44 671.1 201.7 671.53 200.85 677.06C200 682.59 198.72 697.48 195.74 700.03C192.76 702.58 189.79 703.43 188.09 700.46C186.95 698.47 188.51 689.54 192.76 673.66Z" />
			</g>
			<path id="&lt;Path&gt;" class="shp0" d="M130.18 715.48C131.46 727.39 131.04 745.25 128.48 754.19C128.91 754.61 139.42 776.25 159.54 775.03C172.13 774.27 180.78 766.89 185.48 752.91C182.61 738 182.18 725.95 184.21 716.75C185.99 708.65 167.98 708.22 130.18 715.48Z" />
			<path id="&lt;Path&gt;" class="shp0" d="M257.5 781.54C255.72 776.42 250.72 772.42 242.5 769.54L192 748.54L183.09 735.1L157.33 750.83L131.41 734.93L123.33 748.37L73.33 767.37C68.11 769.37 63.83 772.26 60.5 776.04C58.39 778.43 50.13 806.81 47.94 855L266.05 855C263.86 806.81 258.55 784.55 257.5 781.54Z" />
			<path id="&lt;Path&gt;" class="shp0" d="M131.5 637.79C130.17 626.79 136.58 622.12 158 625.7C170.92 627.86 185.67 633.7 187 626.37C187.51 623.59 194 638.7 185.67 643.37C182.54 645.12 166.1 644.23 136.33 640.7L131.5 637.79Z" />
			<path id="&lt;Path&gt;" class="shp0" d="M133 636.7C131.33 634.7 126 633.37 123 636.37C120 639.37 110.42 651.29 115.08 675.29C118.2 691.29 121.83 692.31 126 678.37L132.67 638.04L133 636.7Z" />
			<path id="&lt;Path&gt;" class="shp0" d="M184.67 637.87C186.67 637.12 190.33 635.87 192.67 640.04C195.49 645.07 200 658.87 195.75 676.2C192.42 689.79 190.17 689.37 189 674.95L179.25 642.2L184.67 637.87Z" />
		</g>
		<g id="&lt;Group&gt;">
			<path id="&lt;Path&gt;" class="shp0" d="M463.44 398.43C461.16 409.82 459.55 422.39 455.14 430.97C448.85 443.21 435.07 450.75 423.88 450.75C411.98 450.75 398.8 442.63 392.61 429.06C388.9 420.91 386.14 400.7 385.1 390.18C382.14 360.04 393.89 349.3 423.88 348.66C457.1 347.95 469.18 369.71 463.44 398.43Z" />
			<path id="&lt;Path&gt;" class="shp0" d="M387.51 386.52C382.83 383.96 378.57 384.39 379.43 389.92C380.28 395.45 381.55 410.34 384.53 412.89C387.51 415.44 390.48 416.29 392.19 413.31C393.32 411.33 391.76 402.4 387.51 386.52Z" />
			<path id="&lt;Path&gt;" class="shp0" d="M461.28 386.52C465.96 383.96 470.21 384.39 469.36 389.92C468.51 395.45 467.23 410.34 464.26 412.89C461.28 415.44 458.3 416.29 456.6 413.31C455.46 411.33 457.02 402.4 461.28 386.52Z" />
			<g id="&lt;Group&gt;">
				<path id="&lt;Path&gt;" class="shp0" d="M427.76 455.1L421.4 455.1L418.42 459.63C416.47 463.3 415.67 465.57 416.01 466.45C417.31 468.42 418.64 471.67 419.11 477C422.41 477.22 423.52 477.25 424.58 477.22C425.65 477.25 426.76 477.22 430.06 477C430.44 472.61 431.11 468.69 432.33 466.63C433.08 465.46 428.63 459.48 429.5 458.88C429.99 458.55 430.03 457 429.63 454.26L427.76 455.1Z" />
				<path id="&lt;Path&gt;" class="shp0" d="M429.62 475.47L425.67 473.71L425.67 472.92L424.58 473.31L423.5 472.92L423.5 473.71L419.54 475.47C414.59 479.99 414.68 497.18 414.68 501.72L414.87 563.71L434.67 563.71L434.48 501.72C434.48 497.18 434.57 479.99 429.62 475.47Z" />
			</g>
			<g id="&lt;Group&gt;">
				<path id="&lt;Path&gt;" class="shp0" d="M441.14 349.48C430.38 361.32 397.41 382.72 395.25 388.1C393.1 393.49 378.75 396.01 378.5 398.21C377.9 403.48 377.61 407.33 377.62 409.77C375.68 407.02 374.53 404.39 374.17 401.88C373.63 398.11 373.79 389.26 374.25 382.38C374.75 374.88 373.59 372.9 374.66 366.44C375.38 362.13 376.9 357.11 379.24 351.36C380.67 346.88 382.83 343.02 385.7 339.79C390 334.95 405.81 325.69 412.97 324.18C423.2 322.03 443.03 324.18 443.3 329.92C443.66 337.62 442.94 344.14 441.14 349.48Z" />
				<path id="&lt;Path&gt;" class="shp0" d="M379.58 395.63C376.89 400.12 376.62 409.8 380.57 413.21C377.16 407.11 381.6 397.3 384.83 392.63C386.99 389.52 385.24 390.52 379.58 395.63Z" />
				<path id="&lt;Path&gt;" class="shp0" d="M380.83 393.3C380.12 399.58 379.42 397.88 379.92 407.13C380.16 411.62 382.52 415.49 383.42 419.8C384.62 425.54 382.75 426.13 382.25 427.8C383.75 427.46 385.38 426.48 385.92 423.96C386.46 421.45 385.24 418.01 386.5 414.96C387.75 411.91 392.42 388.94 391.34 387.5C390.62 386.55 387.12 388.48 380.83 393.3Z" />
				<g id="&lt;Group&gt;">
					<path id="&lt;Path&gt;" class="shp0" d="M384.98 412.11C387.85 418.92 390.17 423.38 387.33 429.55C386.04 432.36 380.05 435.33 379.33 433.71C379.69 436.76 383.54 437.73 387.67 437.55C391.79 437.37 402.38 435.81 403.82 423.77C405.38 410.73 399.09 406.84 384.98 412.11Z" />
					<path id="&lt;Path&gt;" class="shp0" d="M383.44 409.77C384.7 415.87 387.57 421.44 385.23 426.28C382.9 431.13 379.85 430.95 378.78 430.23C379.31 431.13 383.26 431.31 384.88 429.69C389.72 424.49 388.11 417.85 386.31 414.26C385.11 411.87 384.16 410.37 383.44 409.77Z" />
					<path id="&lt;Path&gt;" class="shp0" d="M381.63 437.6C383.11 438.14 392.43 439.92 397.94 430.9C399.2 430.27 399.38 431.58 398.48 434.81C398.01 437.74 394.91 439.21 389.17 439.21C385.76 439.21 383.25 438.68 381.63 437.6Z" />
				</g>
				<g id="&lt;Group&gt;">
					<path id="&lt;Path&gt;" class="shp0" d="M463.21 411.21C460.35 418.03 456.54 425.38 460.67 430.05C462.71 432.36 466 434.38 470.17 431.71C469.81 434.77 466.63 436.39 462.5 436.21C458.38 436.03 445.81 434.92 444.37 422.87C442.82 409.83 449.1 405.94 463.21 411.21Z" />
					<path id="&lt;Path&gt;" class="shp0" d="M462.92 409.71C461.66 415.81 458.79 421.37 461.13 426.22C463.46 431.06 466.51 430.88 467.59 430.17C467.05 431.06 463.1 431.24 461.48 429.63C456.64 424.42 458.26 417.79 460.05 414.2C461.25 411.8 462.2 410.31 462.92 409.71Z" />
					<path id="&lt;Path&gt;" class="shp0" d="M469.22 436.87C467.74 437.41 455.77 439.02 450.25 430.01C448.99 429.38 448.82 430.68 449.71 433.91C451.95 436.96 455.95 438.48 461.69 438.48C465.1 438.48 467.61 437.95 469.22 436.87Z" />
				</g>
				<path id="&lt;Path&gt;" class="shp0" d="M440.61 327.95C444.64 327.14 448.41 326.33 454.6 331.18C460.79 336.02 467.52 354.06 471.02 361.59C474.52 369.13 474.23 368.49 474 373.13C473.87 375.82 473.81 375.07 474.5 377.13C475.75 380.88 475.78 379.81 474.34 385.55C473.65 388.32 475.87 390.66 474.25 397.12C473.18 401.43 471.74 404.93 469.94 407.62C471.2 403.49 471.83 400.62 471.83 399.01C470.21 403.58 469 415.88 469.25 420.38C467.9 413.92 456.22 389.05 455.95 387.97C455.68 386.89 438.45 349.75 437.38 349.48C436.66 349.3 437.73 342.12 440.61 327.95Z" />
				<path id="&lt;Path&gt;" class="shp0" d="M469.14 393.98C469.68 404.93 466.81 409.77 467.52 412.82C468.24 415.88 468.6 419.82 468.6 422.87C468.6 425.92 470.57 426.28 471.11 426.28C469.68 427 468.24 426.46 467.16 421.44C466.09 416.41 462.14 404.03 463.04 402.59C463.63 401.64 465.67 398.77 469.14 393.98Z" />
				<path id="&lt;Path&gt;" class="shp0" d="M464.54 407.13C463.82 415.93 465.25 426.69 465.61 428.31C465.97 429.92 466.51 432.62 465.61 433.51C464.71 434.41 464.71 430.82 463.64 428.31C462.56 425.8 458.79 422.21 458.26 417.54C457.9 414.43 459.99 410.96 464.54 407.13Z" />
				<path id="&lt;Path&gt;" class="shp0" d="M464.83 409.71C465.91 414.56 467.7 427.72 469.5 427.9C468.24 428.26 465.19 423.95 464.47 420.54C463.99 418.27 464.11 414.66 464.83 409.71Z" />
			</g>
			<path id="&lt;Path&gt;" class="shp0" d="M418 459.88L409.5 479.38L390.83 457.38L390 458.55L409.5 480.05L418.83 460.71L418 459.88Z" />
			<path id="&lt;Compound Path&gt;" class="shp0" d="M527.35 487.95C525.78 482.68 519.41 477.81 508.24 473.34L460.67 455.71L459.31 454.92L456.63 459.01C459.21 466.48 459.07 477.04 448 498.38C436.5 520.55 429.46 521.81 427.67 524.05L422 522.71C419.33 525.05 413.81 518.92 400.75 497.63C392.69 484.49 387.86 470.81 391.68 458.34L388.75 454.88L388.9 454.66L386.94 455.81L339.78 472.67C330.26 476.48 323.89 481.35 320.67 487.29C319.14 490.09 314.81 517.84 312.62 566.03L534.73 566.03C532.54 517.84 528.26 491.01 527.35 487.95ZM424.67 464.38C426.31 464.25 428.88 464.43 431.91 464.07L430.09 459.88L453.3 446.55C452.66 446.21 451.52 445.94 449.98 445.74C449.64 439.66 449.72 433.08 450.89 427.78C452.67 419.67 434.67 419.25 396.87 426.5C397.47 432.16 397.69 439.17 397.48 445.92C396.63 446.03 395.78 446.26 395.02 446.68L418 459.88L416.32 463.73C420.08 464.45 423.28 464.49 424.67 464.38Z" />
			<path id="&lt;Path&gt;" class="shp0" d="M430.09 459.88L438.59 479.38L458.17 456.55L458.17 458.22L438.59 480.05L429.25 460.71L430.09 459.88Z" />
		</g>
		<path id="&lt;Compound Path&gt;" fill-rule="evenodd" class="shp0" d="M533.48 855L347.31 855C350.99 827.65 356.45 786.11 358.21 776.16C359.29 770.1 362.11 764.02 365.47 761.29C376.5 753.5 390.21 747.3 392.74 745.61C394.58 744.39 400.68 736.3 403.71 733.7C401.22 730.6 398.46 727.56 397.84 727.09C394.82 724.84 386.73 727.59 384.01 724.88C379.28 720.13 382.21 715.99 382.37 715.17C382.8 713 379.09 715.91 378.75 709.9C378.72 709.36 379.35 708.88 379.88 708.6C377.85 709.17 377.26 707.05 377.44 706.12C378.42 700.85 378.04 698.86 377.61 698.72C375.34 697.96 370.21 696.43 371.43 693.29C375.21 683.58 376.94 677.82 376.62 676.01C375.64 674.22 374.9 672.58 374.4 671.07C373.64 668.81 378.51 647.36 378.51 645.98C378.51 645.65 375.63 647.13 376.12 642.19C376.58 637.58 387.81 628.54 407.55 625.9C422.06 623.97 451.43 625.52 459.54 642.69C471.05 667.04 463.58 690.54 455.52 701.6C454 703.67 454.72 707.64 453.13 709.9C452 711.5 450.12 712.51 447.48 712.93L449.37 721.43C453.1 724.92 464.18 736.51 465.96 737.71C468.05 739.09 503.69 747.26 512.71 758.36C519.73 767.01 527.86 815.41 533.48 855ZM405.75 765.75L414.46 757.68L403.44 736.56L395.25 747.5L395.25 776.75L399.5 773.25L403.33 814.63L411.5 778.13L405.75 765.75ZM460.75 736.5L450.17 725.37L420.48 757.34C420.81 757.73 424.78 761.83 429.46 766.66L421.88 777.63L424 824.33C426.82 814.08 433.36 794.65 439.49 776.98C441.86 779.42 443.92 781.53 445.67 783.33L460.75 736.5Z" />
		<g id="&lt;Group&gt;">
			<path id="&lt;Path&gt;" class="shp0" d="M-96.03 651.95C-97.4 625.88 -131.37 619.7 -138.23 619.7C-145.09 619.7 -154.01 621.76 -156.07 625.88L-155.62 626.28C-158.49 625.46 -163.1 625.58 -167.05 628.96C-170.75 632.14 -183.52 647.49 -175.97 672.54C-175.26 674.88 -174.5 676.39 -173.69 677.19C-172.21 687.79 -168.47 704.42 -165.33 711.3C-159.47 724.17 -146.76 731.55 -135.49 731.55C-124.88 731.55 -114.69 724.28 -108.72 712.68C-104.54 704.55 -102.03 692.18 -99.87 681.38C-99.27 678.35 -98.79 675.26 -98.46 672.17L-97.06 671.16C-95.92 670.25 -95.57 663.84 -96.03 651.95Z" />
			<path id="&lt;Path&gt;" class="shp0" d="M-96.5 706.67C-90.5 712.17 -80 707.17 -79.25 700.17C-82.25 702.67 -86.25 701.92 -87.75 700.17C-85 701.67 -79.5 696.17 -77.75 692.67C-82.25 697.42 -90 697.17 -96.25 692.42C-91.31 696.36 -85.67 694.89 -79.33 688C-80.51 689.23 -81.72 690.15 -82.94 690.81C-81.94 690 -80.96 689.06 -80 688C-85.5 690.5 -91.25 688.25 -91.5 683.5C-86.5 684.5 -80 678.5 -81 673C-85 683 -93.5 677 -93 673.5C-91.5 675 -88 673.5 -87.5 669C-95.5 670.5 -95.5 657.5 -97 649C-103.67 654.33 -107.33 659.17 -108 663.5C-108.48 666.6 -107.24 672.31 -105.17 677.88L-120 680.42L-154.84 680.09L-169.67 677.54C-167.6 671.98 -166.36 666.27 -166.84 663.17C-167.5 658.83 -171.17 654 -177.84 648.67C-179.34 657.17 -180.67 673.5 -188.67 672C-188.17 676.5 -184.17 677.17 -182.67 675.67C-182.17 679.17 -190.67 678.67 -193.84 672.67C-194.84 678.17 -190.67 684.33 -185.67 683.33C-185.92 688.08 -189.34 690.17 -194.84 687.67C-193.88 688.73 -192.9 689.67 -191.9 690.48C-193.12 689.82 -194.33 688.9 -195.5 687.67C-189.17 694.56 -183.53 696.03 -178.59 692.09C-184.84 696.84 -192.59 697.09 -197.09 692.34C-195.34 695.84 -189.84 701.34 -187.09 699.84C-188.59 701.59 -192.59 702.34 -195.59 699.84C-194.84 706.84 -184.34 711.84 -178.34 706.34C-182.34 711.84 -191.34 711.59 -196.34 708.09C-195.34 714.59 -184.13 726.13 -172.88 719.13C-172.4 718.83 -172.64 716.43 -172.17 716.05C-172.88 722.13 -183.42 723.48 -184.67 723.67C-183.38 726.6 -176.67 726 -169.91 723.2C-169.19 724.23 -170.18 725.23 -169.09 726.78C-168.01 728.32 -106.83 728.65 -105.74 727.11C-104.66 725.56 -105.65 724.56 -104.93 723.54C-101.2 725.23 -99.97 724.56 -98.67 721.63C-99.92 721.44 -101.46 718.99 -102.67 716.39C-102.2 716.77 -101.73 717.12 -101.25 717.42C-90 724.42 -79.5 714.92 -78.5 708.42C-83.5 711.92 -92.5 712.17 -96.5 706.67Z" />
			<path id="&lt;Compound Path&gt;" fill-rule="evenodd" class="shp0" d="M-38.03 855L-240.15 855C-236.01 807.98 -228.5 773.8 -227.01 770.98C-224.79 766.76 -222.12 764.31 -218.99 763.65L-176.57 742.2L-170.54 739.35L-174 773.67C-159.33 758.89 -146.75 755 -136.25 762C-140.2 758.88 -161.97 741.72 -160.52 734.59L-160.33 734.5L-158.35 734.43C-157.16 729.12 -157.79 721.05 -163.91 705.61C-127.27 698.95 -110.2 699.36 -112.7 706.82C-116.83 719.15 -116.71 727.49 -115.49 732.88L-113.13 733C-112.44 733.5 -112.19 733.75 -112.02 734.31C-109.93 741.27 -132.88 759.08 -136.13 762C-124.79 754.83 -112.08 758.83 -98 774L-102.65 740.1L-101.5 741L-58.53 762.31C-53.96 764.31 -51.24 767.09 -50.35 770.64C-49.57 773.74 -43.02 808.31 -38.03 855ZM-114.04 728.27L-114.18 728.15C-114.18 728.07 -114.13 728.11 -114.04 728.27Z" />
		</g>
	</g>
</svg>