<svg xmlns="http://www.w3.org/2000/svg" width="1123" height="794"  stroke="#000" stroke-linecap="round" stroke-linejoin="round" fill="#fff" fill-rule="evenodd"><defs><linearGradient id="A" x1="0%" y1="50%" x2="100%" y2="50%"><stop offset="0%" stop-color="#90a4ae"/><stop offset="100%" stop-color="#b0bec5"/></linearGradient></defs><g stroke="none"><path d="M59.5 68.6358c0 6.0188-13.38 10.8642-30 10.8642s-30-4.8454-30-10.8642V52.3395h60z" fill="url(#A)"/><ellipse cx="29.5" cy="51.8456" fill="#eceff1" rx="30" ry="10.8642"/><ellipse cx="29.9838" cy="51.0967" fill="#cfd8dc" rx="26.6129" ry="9.6375"/><ellipse cx="48.5018" cy="72.0793" fill="#ffee58" rx="1.4648" ry="1.4949"/><ellipse cx="52.3466" cy="70.1172" fill="#d9ff66" rx="1.4648" ry="1.4949"/><ellipse cx="56.1" cy="68.1553" fill="#4caf50" rx="1.4648" ry="1.4949"/></g><path d="M6.2742 70.6111q14.5161 5.4321 30.9677 3.4568" fill="none" stroke-opacity=".34"/><g stroke="none"><path d="M59.5 47.8951c0 6.0188-13.38 10.8642-30 10.8642s-30-4.8454-30-10.8642V31.5988h60z" fill="url(#A)"/><ellipse cx="29.5" cy="31.105" fill="#eceff1" rx="30" ry="10.8642"/><ellipse cx="29.9838" cy="30.3561" fill="#cfd8dc" rx="26.6129" ry="9.6375"/><ellipse cx="48.5018" cy="51.3387" fill="#ffee58" rx="1.4648" ry="1.4949"/><ellipse cx="52.3466" cy="49.3766" fill="#d9ff66" rx="1.4648" ry="1.4949"/><ellipse cx="56.1" cy="47.4146" fill="#4caf50" rx="1.4648" ry="1.4949"/></g><path d="M6.2742 49.8704q14.5161 5.4321 30.9677 3.4568" fill="none" stroke-opacity=".34"/><g stroke="none"><path d="M59.5 27.1544c0 6.0188-13.38 10.8642-30 10.8642s-30-4.8454-30-10.8642V10.8581h60z" fill="url(#A)"/><ellipse cx="29.5" cy="10.3642" fill="#eceff1" rx="30" ry="10.8642"/><ellipse cx="29.9838" cy="9.6153" fill="#cfd8dc" rx="26.6129" ry="9.6375"/><ellipse cx="48.5018" cy="30.5979" fill="#ffee58" rx="1.4648" ry="1.4949"/><ellipse cx="52.3466" cy="28.6358" fill="#d9ff66" rx="1.4648" ry="1.4949"/><ellipse cx="56.1" cy="26.6739" fill="#4caf50" rx="1.4648" ry="1.4949"/></g><path d="M6.2742 29.1297q14.5161 5.4321 30.9677 3.4568" fill="none" stroke-opacity=".34"/></svg>